<?xml version="1.0" encoding="UTF-8" standalone="no"?>
<!-- The icon can be used freely in both personal and commercial projects with no attribution required, but always appreciated. 
You may NOT sub-license, resell, rent, redistribute or otherwise transfer the icon without express written permission from iconmonstr.com -->
<svg xmlns:dc="http://purl.org/dc/elements/1.1/" xmlns:cc="http://creativecommons.org/ns#" xmlns:rdf="http://www.w3.org/1999/02/22-rdf-syntax-ns#" xmlns:svg="http://www.w3.org/2000/svg" xmlns="http://www.w3.org/2000/svg" xmlns:sodipodi="http://sodipodi.sourceforge.net/DTD/sodipodi-0.dtd" xmlns:inkscape="http://www.inkscape.org/namespaces/inkscape" version="1.1" x="0px" y="0px" width="150" height="158.21916" viewBox="0 0 150 158.21916" enable-background="new 0 0 512 512" xml:space="preserve" id="svg2" inkscape:version="0.48.4 r9939" sodipodi:docname="data_use.svg"><metadata id="metadata9"><rdf:RDF><cc:Work rdf:about=""><dc:format>image/svg+xml</dc:format><dc:type rdf:resource="http://purl.org/dc/dcmitype/StillImage"/><dc:title/></cc:Work></rdf:RDF></metadata><defs id="defs7"/><sodipodi:namedview pagecolor="#ffffff" bordercolor="#666666" borderopacity="1" objecttolerance="10" gridtolerance="10" guidetolerance="10" inkscape:pageopacity="0" inkscape:pageshadow="2" inkscape:window-width="1366" inkscape:window-height="705" id="namedview5" showgrid="false" fit-margin-top="0" fit-margin-left="0" fit-margin-right="0" fit-margin-bottom="0" inkscape:zoom="0.921875" inkscape:cx="74.999998" inkscape:cy="79.109584" inkscape:window-x="-8" inkscape:window-y="-8" inkscape:window-maximized="1" inkscape:current-layer="svg2"/>

<path sodipodi:type="arc" style="fill:#34495e;fill-opacity:1;stroke:none" id="path2992" sodipodi:cx="285.28815" sodipodi:cy="274.44067" sodipodi:rx="79.18644" sodipodi:ry="83.525421" d="m 364.47459,274.44067 a 79.18644,83.525421 0 1 1 -158.37288,0 79.18644,83.525421 0 1 1 158.37288,0 z" transform="matrix(0.94713183,0,0,0.94713183,-195.20549,-180.82191)"/><path inkscape:connector-curvature="0" id="bar_chart_4_icon" d="M 57.120734,115.81238 H 36.310102 V 95.613734 H 57.120734 V 115.81238 z M 84.256335,86.024644 H 63.241452 V 115.81238 H 84.256335 V 86.024644 z M 111.18769,72.96698 H 90.172995 v 42.8454 h 21.014695 v -42.8454 z m 0.39237,-37.222404 -17.029959,2.946577 3.747639,3.785543 -25.612952,24.61637 -9.302829,-8.795019 -26.044191,25.947804 6.406979,6.30106 19.367469,-19.366684 9.592979,9.076608 31.974655,-31.214002 3.63997,3.674181 3.26024,-16.972438 z" style="fill:#ffffff"/></svg>